<?xml version="1.0" encoding="UTF-8" standalone="no"?>
<!-- Created with Inkscape (http://www.inkscape.org/) -->

<svg
   xmlns:dc="http://purl.org/dc/elements/1.1/"
   xmlns:cc="http://creativecommons.org/ns#"
   xmlns:rdf="http://www.w3.org/1999/02/22-rdf-syntax-ns#"
   xmlns:svg="http://www.w3.org/2000/svg"
   xmlns="http://www.w3.org/2000/svg"
   xmlns:sodipodi="http://sodipodi.sourceforge.net/DTD/sodipodi-0.dtd"
   xmlns:inkscape="http://www.inkscape.org/namespaces/inkscape"
   width="1100"
   height="130"
   viewBox="0 0 1100 130"
   id="svg5044"
   version="1.1"
   inkscape:version="0.91 r13725"
   sodipodi:docname="logo_datagouvfr.svg">
  <defs
     id="defs5046" />
  <sodipodi:namedview
     id="base"
     pagecolor="#ffffff"
     bordercolor="#666666"
     borderopacity="1.0"
     inkscape:pageopacity="0.0"
     inkscape:pageshadow="2"
     inkscape:zoom="1.1290909"
     inkscape:cx="597.3191"
     inkscape:cy="312.98712"
     inkscape:document-units="px"
     inkscape:current-layer="layer1"
     showgrid="false"
     inkscape:window-width="1920"
     inkscape:window-height="1016"
     inkscape:window-x="0"
     inkscape:window-y="27"
     inkscape:window-maximized="1"
     units="px" />
  <metadata
     id="metadata5049">
    <rdf:RDF>
      <cc:Work
         rdf:about="">
        <dc:format>image/svg+xml</dc:format>
        <dc:type
           rdf:resource="http://purl.org/dc/dcmitype/StillImage" />
        <dc:title></dc:title>
      </cc:Work>
    </rdf:RDF>
  </metadata>
  <g
     inkscape:label="Calque 1"
     inkscape:groupmode="layer"
     id="layer1"
     transform="translate(0,-922.36218)">
    <path
       style="color:#000000;clip-rule:nonzero;display:inline;overflow:visible;visibility:visible;opacity:1;isolation:auto;mix-blend-mode:normal;color-interpolation:sRGB;color-interpolation-filters:linearRGB;solid-color:#000000;solid-opacity:1;fill:#000000;fill-opacity:1;fill-rule:nonzero;stroke-width:1;stroke-linecap:butt;stroke-linejoin:miter;stroke-miterlimit:4;stroke-dasharray:none;stroke-dashoffset:0;stroke-opacity:1;color-rendering:auto;image-rendering:auto;shape-rendering:auto;text-rendering:auto;enable-background:accumulate"
       d="m 13.619517,994.68377 0,-25.50472 -6.230705,0 -6.2307046,0 0,-3.63458 0,-3.63457 6.2307046,0 6.230705,0 0,-9.8653 0,-9.86528 4.216453,0 4.216464,0 -0.724153,9.86528 -0.724164,9.8653 6.892208,0 6.892209,0 0,3.63457 0,3.63458 -6.838304,0 -6.838302,0 0.297309,25.18242 0.297318,25.18243 -3.843524,0.3223 -3.843514,0.3223 0,-25.50473 z"
       id="path4264"
       inkscape:connector-curvature="0" />
    <path
       style="color:#000000;clip-rule:nonzero;display:inline;overflow:visible;visibility:visible;opacity:1;isolation:auto;mix-blend-mode:normal;color-interpolation:sRGB;color-interpolation-filters:linearRGB;solid-color:#000000;solid-opacity:1;fill:#000000;fill-opacity:1;fill-rule:nonzero;stroke-width:1;stroke-linecap:butt;stroke-linejoin:miter;stroke-miterlimit:4;stroke-dasharray:none;stroke-dashoffset:0;stroke-opacity:1;color-rendering:auto;image-rendering:auto;shape-rendering:auto;text-rendering:auto;enable-background:accumulate"
       d="m 42.126602,1018.7488 c -0.277391,-0.7229 -0.379553,-13.6905 -0.227015,-28.81698 l 0.277328,-27.50271 3.894192,-0.3223 c 3.874251,-0.32064 3.89421,-0.30204 3.899352,3.63457 l 0.0052,3.95689 2.331353,-2.83567 c 2.398219,-2.91703 8.555454,-5.99116 11.999775,-5.99116 1.664057,0 1.856378,0.55623 1.324233,3.83004 -0.538519,3.31303 -1.112211,3.95526 -4.249943,4.75766 -1.995071,0.51019 -4.739053,1.94096 -6.097743,3.17951 -4.693692,4.2786 -5.31803,7.58691 -5.31803,28.17985 l 0,19.2446 -3.667175,0 c -2.016942,0 -3.894129,-0.5914 -4.171519,-1.3143 z"
       id="path4266"
       inkscape:connector-curvature="0" />
    <path
       style="color:#000000;clip-rule:nonzero;display:inline;overflow:visible;visibility:visible;opacity:1;isolation:auto;mix-blend-mode:normal;color-interpolation:sRGB;color-interpolation-filters:linearRGB;solid-color:#000000;solid-opacity:1;fill:#000000;fill-opacity:1;fill-rule:nonzero;stroke-width:1;stroke-linecap:butt;stroke-linejoin:miter;stroke-miterlimit:4;stroke-dasharray:none;stroke-dashoffset:0;stroke-opacity:1;color-rendering:auto;image-rendering:auto;shape-rendering:auto;text-rendering:auto;enable-background:accumulate"
       d="m 90.260526,1019.6484 c -13.285331,-3.5765 -21.603115,-14.5911 -21.603115,-28.60746 0,-8.87504 2.622091,-15.27861 8.750289,-21.36955 10.992898,-10.92608 29.24158,-11.84476 39.39565,-1.98326 2.02051,1.96229 3.93048,3.56781 4.24436,3.56781 0.31389,0 0.5707,-2.10285 0.5707,-4.67301 0,-4.64831 0.0192,-4.67303 3.63457,-4.67303 l 3.63458,0 0,29.07662 0,29.07658 -3.63458,0 -3.63457,0 0,-5.2885 0,-5.2884 -5.1578,4.6373 c -7.43684,6.6863 -15.53913,8.3949 -26.200084,5.5249 z m 17.338794,-7.7588 c 13.19798,-6.0282 17.65048,-22.07872 9.47632,-34.16045 -4.74481,-7.01301 -10.66326,-9.85092 -19.55646,-9.37736 -5.714431,0.30429 -7.763571,0.93226 -11.414152,3.49799 -11.816699,8.30508 -13.285818,25.10032 -3.068312,35.07742 6.880694,6.7189 16.473824,8.6569 24.562604,4.9624 z"
       id="path4268"
       inkscape:connector-curvature="0" />
    <path
       style="color:#000000;clip-rule:nonzero;display:inline;overflow:visible;visibility:visible;opacity:1;isolation:auto;mix-blend-mode:normal;color-interpolation:sRGB;color-interpolation-filters:linearRGB;solid-color:#000000;solid-opacity:1;fill:#000000;fill-opacity:1;fill-rule:nonzero;stroke-width:1;stroke-linecap:butt;stroke-linejoin:miter;stroke-miterlimit:4;stroke-dasharray:none;stroke-dashoffset:0;stroke-opacity:1;color-rendering:auto;image-rendering:auto;shape-rendering:auto;text-rendering:auto;enable-background:accumulate"
       d="m 142.38743,990.98652 0,-29.07662 3.63458,0 c 3.47069,0 3.63457,0.16607 3.63457,3.68349 l 0,3.68352 3.89419,-3.03592 c 9.03672,-7.04509 21.03522,-7.24144 30.12464,-0.49295 7.28336,5.40755 9.92581,16.7518 9.38625,40.29606 l -0.30937,13.4998 -3.63458,0 -3.6346,0 -0.5192,-20.24977 c -0.4806,-18.74272 -0.69437,-20.5314 -2.87212,-24.03344 -2.99256,-4.81227 -7.86891,-7.12009 -15.04455,-7.12009 -6.67125,0 -11.43371,2.6856 -14.73838,8.31113 -1.91354,3.25737 -2.16795,5.68824 -2.47207,23.62127 l -0.33901,19.9901 -3.55518,0 -3.55517,0 0,-29.07658 z"
       id="path4270"
       inkscape:connector-curvature="0" />
    <path
       style="color:#000000;clip-rule:nonzero;display:inline;overflow:visible;visibility:visible;opacity:1;isolation:auto;mix-blend-mode:normal;color-interpolation:sRGB;color-interpolation-filters:linearRGB;solid-color:#000000;solid-opacity:1;fill:#000000;fill-opacity:1;fill-rule:nonzero;stroke-width:1;stroke-linecap:butt;stroke-linejoin:miter;stroke-miterlimit:4;stroke-dasharray:none;stroke-dashoffset:0;stroke-opacity:1;color-rendering:auto;image-rendering:auto;shape-rendering:auto;text-rendering:auto;enable-background:accumulate"
       d="m 213.82385,1020.0752 c -4.81352,-1.451 -8.82417,-5.0051 -10.56895,-9.3657 -2.64935,-6.6214 -2.28644,-8.3 1.7944,-8.3 3.14804,0 3.5856,0.3851 4.71291,4.1477 1.39502,4.6562 5.18845,7.2752 10.53732,7.2752 4.7195,0 9.31775,-4.8796 9.31775,-9.8879 0,-5.02418 -3.65724,-8.38413 -13.40286,-12.31344 -8.34883,-3.36614 -11.40902,-6.6516 -12.28607,-13.19044 -1.65296,-12.32381 12.40632,-21.647 23.59482,-15.64654 4.38204,2.35011 7.04777,5.80839 7.92339,10.27916 0.6475,3.30589 0.5844,3.37497 -3.08355,3.37497 -3.13742,0 -3.85125,-0.4249 -4.40228,-2.62036 -1.21017,-4.82168 -7.94918,-7.28863 -12.80761,-4.68849 -3.16647,1.69464 -4.65295,6.65353 -3.02374,10.087 1.36113,2.86843 4.05724,4.55545 15.26216,9.54981 7.06538,3.14924 9.48576,6.91786 9.49102,14.77783 0.005,7.301 -2.83418,11.9391 -9.31099,15.2111 -4.75782,2.4035 -8.8322,2.7918 -13.74772,1.3101 z"
       id="path4272"
       inkscape:connector-curvature="0" />
    <path
       style="color:#000000;clip-rule:nonzero;display:inline;overflow:visible;visibility:visible;opacity:1;isolation:auto;mix-blend-mode:normal;color-interpolation:sRGB;color-interpolation-filters:linearRGB;solid-color:#000000;solid-opacity:1;fill:#000000;fill-opacity:1;fill-rule:nonzero;stroke-width:1;stroke-linecap:butt;stroke-linejoin:miter;stroke-miterlimit:4;stroke-dasharray:none;stroke-dashoffset:0;stroke-opacity:1;color-rendering:auto;image-rendering:auto;shape-rendering:auto;text-rendering:auto;enable-background:accumulate"
       d="m 247.27094,1000.8518 0,-38.9419 3.63458,0 3.63459,0 0,4.87673 0,4.87673 3.37495,-3.2028 c 7.80783,-7.40953 19.44836,-9.56818 30.03642,-5.57001 12.15803,4.59101 18.96377,14.72001 18.8779,28.09597 -0.0581,9.04128 -1.77287,13.67888 -7.33397,19.83438 -6.06603,6.7143 -12.80513,9.651 -22.1094,9.6344 -8.817,-0.016 -13.29796,-1.5702 -19.02724,-6.6005 l -3.81866,-3.3529 0,14.6459 0,14.6459 -3.63459,0 -3.63458,0 0,-38.9419 z m 38.19642,11.3679 c 8.69107,-3.6305 13.72614,-11.4193 13.72614,-21.23318 0,-21.475 -25.13171,-30.87927 -39.60876,-14.8216 -8.0191,8.89463 -7.11864,23.09764 2.01473,31.77858 5.86278,5.5723 16.292,7.4408 23.86789,4.2762 z"
       id="path4274"
       inkscape:connector-curvature="0" />
    <path
       style="color:#000000;clip-rule:nonzero;display:inline;overflow:visible;visibility:visible;opacity:1;isolation:auto;mix-blend-mode:normal;color-interpolation:sRGB;color-interpolation-filters:linearRGB;solid-color:#000000;solid-opacity:1;fill:#000000;fill-opacity:1;fill-rule:nonzero;stroke-width:1;stroke-linecap:butt;stroke-linejoin:miter;stroke-miterlimit:4;stroke-dasharray:none;stroke-dashoffset:0;stroke-opacity:1;color-rendering:auto;image-rendering:auto;shape-rendering:auto;text-rendering:auto;enable-background:accumulate"
       d="m 338.1354,1019.649 c -14.16724,-4.4805 -21.24264,-14.0273 -21.24264,-28.66248 0,-13.15409 6.96234,-23.77165 18.39221,-28.0481 20.11295,-7.52523 40.75386,6.68049 40.75386,28.0481 0,16.73228 -13.34396,30.31168 -29.52469,30.04558 -2.32374,-0.038 -6.09415,-0.6606 -8.37874,-1.3831 z m 20.66995,-9.6337 c 16.65382,-11.53845 9.72929,-39.99848 -10.13268,-41.64558 -16.78048,-1.39156 -28.17678,13.17542 -23.49478,30.03154 1.4247,5.12924 7.89607,12.09464 12.95751,13.94664 6.35789,2.3264 15.42172,1.3035 20.66995,-2.3326 z"
       id="path4276"
       inkscape:connector-curvature="0" />
    <path
       style="color:#000000;clip-rule:nonzero;display:inline;overflow:visible;visibility:visible;opacity:1;isolation:auto;mix-blend-mode:normal;color-interpolation:sRGB;color-interpolation-filters:linearRGB;solid-color:#000000;solid-opacity:1;fill:#000000;fill-opacity:1;fill-rule:nonzero;stroke-width:1;stroke-linecap:butt;stroke-linejoin:miter;stroke-miterlimit:4;stroke-dasharray:none;stroke-dashoffset:0;stroke-opacity:1;color-rendering:auto;image-rendering:auto;shape-rendering:auto;text-rendering:auto;enable-background:accumulate"
       d="m 387.4618,990.98652 0,-29.07662 3.6346,0 c 3.49823,0 3.63457,0.14391 3.63457,3.83827 l 0,3.8383 3.44228,-3.33641 c 3.0942,-2.999 8.34486,-5.37862 11.86801,-5.37862 0.79627,0 1.30492,1.40113 1.30492,3.59455 0,3.30804 -0.32734,3.6827 -4.1066,4.70034 -5.57258,1.50055 -10.15158,5.58711 -11.43398,10.20436 -0.58467,2.10509 -1.06566,12.12207 -1.06885,22.25991 l -0.006,18.4325 -3.63458,0 -3.63457,0 0,-29.07658 z"
       id="path4278"
       inkscape:connector-curvature="0" />
    <path
       style="color:#000000;clip-rule:nonzero;display:inline;overflow:visible;visibility:visible;opacity:1;isolation:auto;mix-blend-mode:normal;color-interpolation:sRGB;color-interpolation-filters:linearRGB;solid-color:#000000;solid-opacity:1;fill:#000000;fill-opacity:1;fill-rule:nonzero;stroke-width:1;stroke-linecap:butt;stroke-linejoin:miter;stroke-miterlimit:4;stroke-dasharray:none;stroke-dashoffset:0;stroke-opacity:1;color-rendering:auto;image-rendering:auto;shape-rendering:auto;text-rendering:auto;enable-background:accumulate"
       d="m 428.99985,994.6211 0,-25.44205 -6.23072,0 -6.2307,0 0,-3.63458 0,-3.63457 6.2307,0 6.23072,0 0,-9.8653 0,-9.86528 3.63457,0 3.63458,0 0,9.81573 0,9.81573 6.49031,0.30918 c 6.49003,0.30914 6.49035,0.30932 6.81574,3.68412 l 0.32542,3.37497 -6.81575,0 -6.81572,0 0,25.44205 0,25.442 -3.63458,0 -3.63457,0 0,-25.442 z"
       id="path4280"
       inkscape:connector-curvature="0" />
    <path
       style="color:#000000;clip-rule:nonzero;display:inline;overflow:visible;visibility:visible;opacity:1;isolation:auto;mix-blend-mode:normal;color-interpolation:sRGB;color-interpolation-filters:linearRGB;solid-color:#000000;solid-opacity:1;fill:#000000;fill-opacity:1;fill-rule:nonzero;stroke-width:1;stroke-linecap:butt;stroke-linejoin:miter;stroke-miterlimit:4;stroke-dasharray:none;stroke-dashoffset:0;stroke-opacity:1;color-rendering:auto;image-rendering:auto;shape-rendering:auto;text-rendering:auto;enable-background:accumulate"
       d="m 449.68898,1018.0661 c -3.98044,-3.9804 -3.94246,-7.6402 0.12154,-11.7042 2.65378,-2.6538 3.68766,-3.0508 6.48669,-2.491 7.5543,1.5109 10.13747,9.9417 4.5252,14.7691 -3.84751,3.3095 -7.43491,3.1246 -11.13338,-0.5739 z"
       id="path4282"
       inkscape:connector-curvature="0" />
    <path
       style="color:#000000;clip-rule:nonzero;display:inline;overflow:visible;visibility:visible;opacity:1;isolation:auto;mix-blend-mode:normal;color-interpolation:sRGB;color-interpolation-filters:linearRGB;solid-color:#000000;solid-opacity:1;fill:#000000;fill-opacity:1;fill-rule:nonzero;stroke-width:1;stroke-linecap:butt;stroke-linejoin:miter;stroke-miterlimit:4;stroke-dasharray:none;stroke-dashoffset:0;stroke-opacity:1;color-rendering:auto;image-rendering:auto;shape-rendering:auto;text-rendering:auto;enable-background:accumulate"
       d="m 499.42815,1019.7031 c -2.67265,-0.7472 -6.52789,-2.6312 -8.56722,-4.1867 l -3.70785,-2.8281 0,3.1682 0,3.1682 -6.23071,0 -6.23068,0 0,-36.78009 c 0,-20.22904 -0.28366,-37.51924 -0.63034,-38.42268 -0.53833,-1.40289 0.44673,-1.64261 6.74994,-1.64261 l 7.38024,0 0,11.88672 0,11.88672 5.81696,-3.05989 c 4.63655,-2.43897 7.13154,-3.05988 12.29551,-3.05988 16.21984,0 28.61782,12.99981 28.61782,30.00697 0,20.61354 -17.10438,35.00454 -35.49367,29.86314 z m 12.68306,-13.3994 c 6.68841,-3.3759 9.50009,-8.69891 9.04474,-17.12329 -0.56581,-10.46804 -6.97712,-16.88601 -16.86842,-16.88601 -9.44219,0 -16.10572,6.30111 -16.90914,15.98951 -1.23543,14.89749 11.92376,24.48499 24.73282,18.01979 z"
       id="path4284"
       inkscape:connector-curvature="0" />
    <path
       style="color:#000000;clip-rule:nonzero;display:inline;overflow:visible;visibility:visible;opacity:1;isolation:auto;mix-blend-mode:normal;color-interpolation:sRGB;color-interpolation-filters:linearRGB;solid-color:#000000;solid-opacity:1;fill:#000000;fill-opacity:1;fill-rule:nonzero;stroke-width:1;stroke-linecap:butt;stroke-linejoin:miter;stroke-miterlimit:4;stroke-dasharray:none;stroke-dashoffset:0;stroke-opacity:1;color-rendering:auto;image-rendering:auto;shape-rendering:auto;text-rendering:auto;enable-background:accumulate"
       d="m 564.42099,1019.6907 c -19.21823,-4.8461 -28.697,-25.35731 -19.8167,-42.88173 5.20148,-10.2646 14.86979,-16.12078 26.61471,-16.12078 16.91049,0 29.18103,12.05049 29.52363,28.99418 l 0.12077,5.97718 -22.58631,0.27985 c -12.42246,0.15394 -22.58455,0.62123 -22.58242,1.03846 0.002,0.41722 0.94922,2.30911 2.1046,4.20424 4.58708,7.5237 17.0596,9.4714 24.46796,3.8207 2.82803,-2.157 4.54734,-2.5933 10.21927,-2.5933 3.75058,0 6.81921,0.4021 6.81921,0.8935 0,1.2632 -5.12647,8.666 -7.14291,10.3146 -3.50446,2.8651 -12.26312,6.3504 -17.26068,6.8685 -2.85574,0.296 -7.57226,-0.062 -10.48119,-0.7954 z m 23.46183,-35.50569 c 0,-1.31523 -3.04481,-6.31235 -4.82632,-7.92088 -3.25731,-2.94106 -10.79141,-4.31837 -15.97981,-2.92129 -4.78725,1.28907 -11.38584,6.94047 -11.38584,9.75145 0,1.45159 2.03363,1.66153 16.09599,1.66153 8.85279,0 16.09598,-0.25687 16.09598,-0.57081 z"
       id="path4286"
       inkscape:connector-curvature="0" />
    <path
       style="color:#000000;clip-rule:nonzero;display:inline;overflow:visible;visibility:visible;opacity:1;isolation:auto;mix-blend-mode:normal;color-interpolation:sRGB;color-interpolation-filters:linearRGB;solid-color:#000000;solid-opacity:1;fill:#000000;fill-opacity:1;fill-rule:nonzero;stroke-width:1;stroke-linecap:butt;stroke-linejoin:miter;stroke-miterlimit:4;stroke-dasharray:none;stroke-dashoffset:0;stroke-opacity:1;color-rendering:auto;image-rendering:auto;shape-rendering:auto;text-rendering:auto;enable-background:accumulate"
       d="m 612.80565,996.69799 0,-22.32669 -3.11536,0 c -3.11535,0 -3.11535,0 -3.11535,-6.2307 0,-6.2307 0,-6.2307 3.11535,-6.2307 l 3.11536,0 0,-9.8653 0,-9.86528 6.74993,0 6.74992,0 0,9.86528 0,9.8653 4.1538,0 4.15381,0 0,6.2307 0,6.2307 -4.15381,0 -4.1538,0 0,22.32669 0,22.32671 -6.74992,0 -6.74993,0 0,-22.32671 z"
       id="path4288"
       inkscape:connector-curvature="0" />
    <path
       style="color:#000000;clip-rule:nonzero;display:inline;overflow:visible;visibility:visible;opacity:1;isolation:auto;mix-blend-mode:normal;color-interpolation:sRGB;color-interpolation-filters:linearRGB;solid-color:#000000;solid-opacity:1;fill:#000000;fill-opacity:1;fill-rule:nonzero;stroke-width:1;stroke-linecap:butt;stroke-linejoin:miter;stroke-miterlimit:4;stroke-dasharray:none;stroke-dashoffset:0;stroke-opacity:1;color-rendering:auto;image-rendering:auto;shape-rendering:auto;text-rendering:auto;enable-background:accumulate"
       d="m 661.3371,1020.0211 c -14.69472,-3.6476 -23.55371,-16.1705 -22.31919,-31.54997 1.35789,-16.9164 12.50192,-27.78297 28.51915,-27.80904 8.26296,-0.0138 11.1897,0.96403 16.28711,5.43961 l 3.74994,3.2925 0,-3.74215 0,-3.74215 6.23069,0 6.23071,0 0,28.55738 0,28.55742 -6.23071,0 c -6.23069,0 -6.23069,0 -6.23069,-3.1154 0,-3.4473 -1.11547,-3.9674 -3.17835,-1.4817 -3.87261,4.6662 -15.4653,7.4783 -23.05866,5.5935 z m 13.88027,-12.5632 c 7.28963,-2.4416 11.31829,-8.4921 11.31829,-16.99863 0,-15.70629 -18.17013,-23.74253 -28.78977,-12.73306 -5.83152,6.04555 -7.15695,14.20802 -3.47811,21.41913 2.42755,4.75836 4.07194,6.19766 9.15251,8.01056 4.87313,1.7389 7.31985,1.8016 11.79708,0.302 z"
       id="path4290"
       inkscape:connector-curvature="0" />
    <path
       style="color:#000000;clip-rule:nonzero;display:inline;overflow:visible;visibility:visible;opacity:1;isolation:auto;mix-blend-mode:normal;color-interpolation:sRGB;color-interpolation-filters:linearRGB;solid-color:#000000;solid-opacity:1;fill:#000000;fill-opacity:1;fill-rule:nonzero;stroke-width:1;stroke-linecap:butt;stroke-linejoin:miter;stroke-miterlimit:4;stroke-dasharray:none;stroke-dashoffset:0;stroke-opacity:1;color-rendering:auto;image-rendering:auto;shape-rendering:auto;text-rendering:auto;enable-background:accumulate"
       d="m 713.9504,1019.6215 c -5.69824,-2.4855 -6.38893,-9.2652 -1.3738,-13.4851 3.54297,-2.9813 5.19965,-3.2679 8.5558,-1.4804 3.37589,1.798 4.79451,4.1113 4.83137,7.8784 0.0314,3.2142 -2.87652,7.5287 -5.07432,7.5287 -0.52443,0 -1.57586,0.2166 -2.3365,0.4814 -0.76065,0.2647 -2.83179,-0.1507 -4.60255,-0.923 z"
       id="path4292"
       inkscape:connector-curvature="0" />
    <path
       style="color:#000000;clip-rule:nonzero;display:inline;overflow:visible;visibility:visible;opacity:1;isolation:auto;mix-blend-mode:normal;color-interpolation:sRGB;color-interpolation-filters:linearRGB;solid-color:#000000;solid-opacity:1;fill:#000000;fill-opacity:1;fill-rule:nonzero;stroke-width:1;stroke-linecap:butt;stroke-linejoin:miter;stroke-miterlimit:4;stroke-dasharray:none;stroke-dashoffset:0;stroke-opacity:1;color-rendering:auto;image-rendering:auto;shape-rendering:auto;text-rendering:auto;enable-background:accumulate"
       d="m 755.07342,1041.3023 c -3.14133,-0.8741 -7.46746,-2.7484 -9.61366,-4.1651 -3.66859,-2.4216 -10.11692,-10.0942 -10.11692,-12.0376 0,-0.4855 3.44755,-0.8827 7.66124,-0.8827 5.86225,0 7.99586,0.4036 9.08644,1.7186 3.69034,4.4498 14.77576,5.9124 21.31024,2.8116 3.95286,-1.8758 6.91404,-6.7592 8.09936,-13.357 l 0.74624,-4.1538 -2.94234,2.7372 c -7.42497,6.9072 -19.41346,8.6069 -28.76784,4.0785 -21.42029,-10.3694 -21.51769,-44.75287 -0.15612,-55.09384 8.56383,-4.14569 22.45327,-2.82744 27.56752,2.61645 3.16185,3.36561 4.12551,3.23729 4.12551,-0.54937 0,-3.11534 0,-3.11534 6.2307,-3.11534 l 6.23072,0 0,26.30729 c 0,29.52481 -0.84343,35.99661 -5.62318,43.14841 -6.11162,9.1446 -20.98646,13.5127 -33.83796,9.9367 z m 18.62793,-35.588 c 4.7297,-3.5034 6.66028,-7.164 7.11838,-13.49735 1.01744,-14.06593 -10.83148,-23.40179 -22.91645,-18.05605 -7.84923,3.47211 -11.50588,11.597 -9.65632,21.45597 0.8768,4.67373 6.01718,10.62953 10.30693,11.94193 4.45237,1.3622 12.07077,0.4345 15.14746,-1.8445 z"
       id="path4294"
       inkscape:connector-curvature="0" />
    <path
       style="color:#000000;clip-rule:nonzero;display:inline;overflow:visible;visibility:visible;opacity:1;isolation:auto;mix-blend-mode:normal;color-interpolation:sRGB;color-interpolation-filters:linearRGB;solid-color:#000000;solid-opacity:1;fill:#000000;fill-opacity:1;fill-rule:nonzero;stroke-width:1;stroke-linecap:butt;stroke-linejoin:miter;stroke-miterlimit:4;stroke-dasharray:none;stroke-dashoffset:0;stroke-opacity:1;color-rendering:auto;image-rendering:auto;shape-rendering:auto;text-rendering:auto;enable-background:accumulate"
       d="m 827.48923,1020.0211 c -9.35797,-2.3229 -17.60382,-9.0925 -21.4521,-17.6116 -3.06537,-6.78597 -2.92167,-17.55481 0.32561,-24.40362 7.12364,-15.02433 25.27526,-21.69401 40.30912,-14.81127 23.41319,10.71892 23.60216,43.79189 0.31076,54.38819 -6.15251,2.799 -14.05685,3.7877 -19.49339,2.4383 z m 13.3591,-13.3596 c 10.7749,-4.8934 13.46422,-20.2117 5.02929,-28.64662 -6.9499,-6.9499 -16.82136,-6.94254 -23.7816,0.0178 -8.2908,8.29078 -5.55413,23.81442 5.04699,28.62892 5.36035,2.4343 8.345,2.4343 13.70532,0 z"
       id="path4296"
       inkscape:connector-curvature="0" />
    <path
       style="color:#000000;clip-rule:nonzero;display:inline;overflow:visible;visibility:visible;opacity:1;isolation:auto;mix-blend-mode:normal;color-interpolation:sRGB;color-interpolation-filters:linearRGB;solid-color:#000000;solid-opacity:1;fill:#000000;fill-opacity:1;fill-rule:nonzero;stroke-width:1;stroke-linecap:butt;stroke-linejoin:miter;stroke-miterlimit:4;stroke-dasharray:none;stroke-dashoffset:0;stroke-opacity:1;color-rendering:auto;image-rendering:auto;shape-rendering:auto;text-rendering:auto;enable-background:accumulate"
       d="m 888.22169,1019.8843 c -5.9874,-1.3397 -11.11448,-6.5979 -13.16461,-13.5015 -1.1938,-4.02 -1.60027,-10.35239 -1.60027,-24.93082 l 0,-19.54208 6.68822,0 6.68822,0 0.32133,20.22861 0.32131,20.22859 2.87935,2.877 c 5.717,5.7121 16.34793,2.9285 19.12912,-5.0088 0.75926,-2.16686 1.26215,-10.2762 1.29808,-20.93136 l 0.0585,-17.39404 6.74996,0 6.74993,0 0,28.55738 0,28.55742 -6.23071,0 c -5.98695,0 -6.23072,-0.1036 -6.23072,-2.649 l 0,-2.649 -3.37496,2.547 c -3.48041,2.6266 -10.10933,4.8962 -13.75948,4.7109 -1.14229,-0.058 -4.07781,-0.5531 -6.52334,-1.1003 z"
       id="path4298"
       inkscape:connector-curvature="0" />
    <path
       style="color:#000000;clip-rule:nonzero;display:inline;overflow:visible;visibility:visible;opacity:1;isolation:auto;mix-blend-mode:normal;color-interpolation:sRGB;color-interpolation-filters:linearRGB;solid-color:#000000;solid-opacity:1;fill:#000000;fill-opacity:1;fill-rule:nonzero;stroke-width:1;stroke-linecap:butt;stroke-linejoin:miter;stroke-miterlimit:4;stroke-dasharray:none;stroke-dashoffset:0;stroke-opacity:1;color-rendering:auto;image-rendering:auto;shape-rendering:auto;text-rendering:auto;enable-background:accumulate"
       d="m 952.74229,1017.2596 c -0.35755,-1.0282 -5.07606,-12.8511 -10.48555,-26.27308 -5.4096,-13.42199 -10.24015,-25.45503 -10.73468,-26.74011 -0.88175,-2.29162 -0.7535,-2.33651 6.67153,-2.33651 l 7.57072,0 2.42976,7.00953 c 11.19576,32.29807 10.68286,31.12317 12.11613,27.75577 0.72391,-1.70091 3.71372,-10.21893 6.64401,-18.92893 l 5.32777,-15.83637 7.70219,0 c 4.23625,0 7.69981,0.11678 7.69679,0.25961 0,0.14283 -5.11,12.87679 -11.34881,28.29777 l -11.34331,28.03822 -5.79819,0.3118 c -4.8207,0.2592 -5.90784,0 -6.44836,-1.5577 z"
       id="path4300"
       inkscape:connector-curvature="0" />
    <path
       style="color:#000000;clip-rule:nonzero;display:inline;overflow:visible;visibility:visible;opacity:1;isolation:auto;mix-blend-mode:normal;color-interpolation:sRGB;color-interpolation-filters:linearRGB;solid-color:#000000;solid-opacity:1;fill:#000000;fill-opacity:1;fill-rule:nonzero;stroke-width:1;stroke-linecap:butt;stroke-linejoin:miter;stroke-miterlimit:4;stroke-dasharray:none;stroke-dashoffset:0;stroke-opacity:1;color-rendering:auto;image-rendering:auto;shape-rendering:auto;text-rendering:auto;enable-background:accumulate"
       d="m 985.23034,1018.9493 c -5.01822,-3.9473 -2.7462,-14.1889 3.23487,-14.5825 4.18933,-0.2757 6.09798,0.3747 8.30759,2.8306 6.9914,7.7708 -3.2926,18.2412 -11.54246,11.7519 z"
       id="path4302"
       inkscape:connector-curvature="0" />
    <path
       style="color:#000000;clip-rule:nonzero;display:inline;overflow:visible;visibility:visible;opacity:1;isolation:auto;mix-blend-mode:normal;color-interpolation:sRGB;color-interpolation-filters:linearRGB;solid-color:#000000;solid-opacity:1;fill:#000000;fill-opacity:1;fill-rule:nonzero;stroke-width:1;stroke-linecap:butt;stroke-linejoin:miter;stroke-miterlimit:4;stroke-dasharray:none;stroke-dashoffset:0;stroke-opacity:1;color-rendering:auto;image-rendering:auto;shape-rendering:auto;text-rendering:auto;enable-background:accumulate"
       d="m 991.32052,1046.6969 c -4.40499,-1.969 -5.90296,-4.1702 -5.52227,-8.1147 0.25972,-2.691 0.96504,-3.6459 3.29491,-4.4603 2.53932,-0.8877 3.241,-0.6947 4.89339,1.3458 1.34272,1.6583 1.74354,3.3087 1.31915,5.431 -0.55288,2.7644 -0.35091,3.0488 2.1658,3.0488 3.6331,0 7.2762,-4.0079 9.8178,-10.801 1.9076,-5.0986 14.666,-62.04857 14.666,-65.46518 0,-1.27104 -1.2401,-1.61763 -5.7876,-1.61763 -4.9517,0 -5.7377,-0.2625 -5.4415,-1.81728 0.2768,-1.45312 1.6211,-1.87863 6.7079,-2.1234 l 6.3617,-0.3061 2.8075,-8.00151 c 3.6193,-10.31573 6.7047,-15.58509 11.8452,-20.22914 5.7167,-5.16469 11.4587,-6.7997 17.0009,-4.84097 2.3216,0.82053 5.1885,2.79835 6.3709,4.39518 1.9822,2.67712 2.0273,3.12212 0.5805,5.71148 -3.3422,5.98132 -11.1136,3.15486 -9.8497,-3.58233 0.6158,-3.28233 0.4874,-3.4748 -2.3163,-3.4748 -5.6012,0 -10.5535,7.67689 -14.1104,21.87381 -0.9392,3.74896 -1.7077,7.1369 -1.7077,7.52877 0,0.39187 3.2274,0.7125 7.172,0.7125 6.6097,0 7.1302,0.15939 6.64,2.03361 -0.4547,1.73907 -1.5983,2.0775 -7.895,2.33651 l -7.3633,0.30291 -5.5145,23.88435 c -3.0331,13.13642 -6.7209,27.51442 -8.1952,31.95102 -6.1152,18.4018 -17.9944,28.7243 -27.94018,24.2786 z"
       id="path4304"
       inkscape:connector-curvature="0" />
    <path
       style="color:#000000;clip-rule:nonzero;display:inline;overflow:visible;visibility:visible;opacity:1;isolation:auto;mix-blend-mode:normal;color-interpolation:sRGB;color-interpolation-filters:linearRGB;solid-color:#000000;solid-opacity:1;fill:#000000;fill-opacity:1;fill-rule:nonzero;stroke-width:1;stroke-linecap:butt;stroke-linejoin:miter;stroke-miterlimit:4;stroke-dasharray:none;stroke-dashoffset:0;stroke-opacity:1;color-rendering:auto;image-rendering:auto;shape-rendering:auto;text-rendering:auto;enable-background:accumulate"
       d="m 1047.9166,1019.6997 c 0,-0.2625 2.7701,-10.0682 6.1559,-21.7903 3.3858,-11.72215 6.4701,-23.40769 6.8541,-25.96789 0.6162,-4.10935 0.431,-4.79775 -1.5797,-5.87388 -1.2528,-0.67044 -3.4025,-0.9367 -4.7771,-0.59168 -1.3922,0.34942 -2.4994,0.16729 -2.4994,-0.41114 0,-1.14111 0.9338,-1.40016 12.721,-3.52887 4.7457,-0.85705 8.048,-1.04923 8.048,-0.46832 0,0.81409 -1.6837,7.82485 -5.8134,24.20741 -0.2879,1.14229 0.7034,-0.24262 2.2028,-3.07761 5.9617,-11.2716 17.2228,-22.36443 22.7038,-22.36443 2.6509,0 5.8296,3.87577 5.8296,7.1082 0,5.67164 -7.8,8.83904 -10.6255,4.31475 -2.0918,-3.34951 -4.6212,-2.43348 -9.1698,3.32107 -5.8941,7.45662 -9.9296,15.67073 -15.4593,31.46699 l -4.7258,13.4999 -4.9326,0.3165 c -2.7129,0.1741 -4.9326,0.1018 -4.9326,-0.1607 z"
       id="path4306"
       inkscape:connector-curvature="0" />
  </g>
</svg>
